<?xml version="1.0" encoding="UTF-8"?>
<!DOCTYPE svg PUBLIC "-//W3C//DTD SVG 1.1//EN" "http://www.w3.org/Graphics/SVG/1.1/DTD/svg11.dtd">
<!-- Creator: CorelDRAW X7 -->
<svg xmlns="http://www.w3.org/2000/svg" xml:space="preserve" width="13.2447cm" height="16.6965cm" version="1.1" style="shape-rendering:geometricPrecision; text-rendering:geometricPrecision; image-rendering:optimizeQuality; fill-rule:evenodd; clip-rule:evenodd"
viewBox="0 0 1051 1325"
 xmlns:xlink="http://www.w3.org/1999/xlink">
 <defs>
  <style type="text/css">
   <![CDATA[
    .fil1 {fill:#727270}
    .fil3 {fill:#B2B4B3}
    .fil0 {fill:#D9DBDA}
    .fil2 {fill:white}
    .fil4 {fill:#B2B4B3;fill-rule:nonzero}
   ]]>
  </style>
 </defs>
 <g id="Слой_x0020_1">
  <metadata id="CorelCorpID_0Corel-Layer"/>
  <circle class="fil0" cx="525" cy="716" r="525"/>
  <path class="fil1" d="M223 196c93,-28 187,-55 281,-83 117,-35 235,-69 353,-104l30 -9 0 32c-2,204 -3,409 -5,613 -2,218 -3,436 -5,653l0 27 -26 -3c-125,-14 -249,-28 -373,-42 -97,-10 -195,-21 -292,-32l-23 -3 1 -22c7,-172 15,-343 22,-515 6,-164 13,-327 20,-490l0 -17 17 -5z"/>
  <path class="fil2" d="M229 219c88,-26 181,-54 282,-83 108,-32 225,-67 352,-104 -1,200 -3,404 -5,613 -1,213 -3,431 -5,653 -135,-15 -258,-29 -372,-41 -105,-12 -203,-23 -293,-33 7,-174 14,-346 21,-515 7,-166 14,-330 20,-490z"/>
  <path class="fil0" d="M242 499c81,-15 168,-31 260,-47 99,-18 206,-37 320,-58 0,30 0,60 -1,91 -115,17 -222,33 -321,48 -93,14 -179,28 -261,40 1,-25 2,-50 3,-74z"/>
  <path class="fil3" d="M245 424c81,-17 167,-35 259,-55 99,-21 205,-43 319,-67 0,11 0,21 0,31 -115,23 -221,44 -319,64 -93,19 -179,36 -260,52 1,-8 1,-17 1,-25z"/>
  <g id="_1900227085024">
   <path class="fil0" d="M530 867c44,-2 90,-3 137,-4 48,-2 99,-3 151,-5 -1,10 -1,20 -1,30 -52,1 -102,2 -151,3 -47,1 -92,2 -136,3 0,-9 0,-18 0,-27z"/>
   <path class="fil0" d="M227 876c35,-1 71,-2 108,-3 38,-1 77,-3 118,-4 0,9 -1,18 -1,27 -40,1 -80,1 -118,2 -37,1 -73,2 -108,3 1,-9 1,-17 1,-25z"/>
  </g>
  <path class="fil0" d="M237 623c82,-11 169,-22 261,-34 100,-14 207,-28 323,-43 -1,31 -1,62 -1,93 -116,11 -224,22 -324,32 -93,10 -180,19 -262,27 1,-25 2,-50 3,-75z"/>
  <path class="fil0" d="M232 749c82,-7 169,-14 263,-22 100,-8 208,-17 324,-26 0,31 0,62 -1,94 -117,6 -225,11 -325,16 -94,5 -182,10 -264,14 1,-26 2,-51 3,-76z"/>
  <path class="fil1" d="M286 359c22,-5 41,-33 42,-62 1,-29 -16,-47 -38,-41 -21,6 -39,33 -40,61 -2,28 14,47 36,42z"/>
  <path class="fil0" d="M613 266c33,-8 67,-16 102,-24 35,-9 72,-17 109,-26 0,-30 1,-59 1,-88 -37,10 -74,19 -109,29 -34,9 -68,18 -101,27 -1,27 -1,55 -2,82z"/>
  <path class="fil4" d="M430 282c3,0 6,1 10,2 -2,9 -5,16 -9,21 -4,5 -8,8 -14,9 -6,2 -11,0 -15,-5 -5,-7 -7,-16 -6,-28 0,-13 3,-24 8,-33 4,-7 10,-12 17,-14 5,-1 10,0 14,4 2,2 4,7 6,13 -4,3 -7,5 -11,7 0,-4 -2,-7 -4,-9 -1,-2 -4,-2 -6,-1 -4,1 -7,3 -10,8 -2,5 -4,12 -4,21 0,10 1,16 3,20 2,3 5,5 9,4 2,-1 5,-3 7,-6 2,-3 4,-7 5,-13zm19 -26c0,-10 0,-19 0,-28 4,-1 7,-2 11,-3 0,7 -1,14 -1,21 0,4 0,7 1,9 0,2 1,4 2,5 1,1 4,1 7,1 4,-2 8,-4 11,-7 0,-12 0,-23 0,-35 4,-1 8,-2 11,-3 -1,27 -1,53 -2,80 -4,1 -7,2 -11,3 1,-11 1,-22 1,-32 -4,4 -8,6 -13,7 -5,2 -10,1 -13,-3 -3,-3 -5,-8 -4,-15zm51 37c1,-26 2,-53 2,-80 14,-3 27,-7 41,-10 0,4 0,9 0,13 -10,3 -20,5 -30,8 0,6 0,12 0,18 9,-3 18,-5 27,-7 0,4 0,9 0,13 -9,3 -19,5 -28,7 0,8 0,15 0,22 10,-2 20,-5 31,-7 -1,4 -1,9 -1,13 -14,4 -28,7 -42,10zm65 -15c0,-23 1,-45 1,-68 -5,2 -11,3 -17,5 1,-5 1,-10 1,-14 15,-4 30,-8 45,-12 0,4 0,9 0,14 -6,1 -12,3 -17,4 -1,23 -1,45 -2,68 -4,1 -8,2 -11,3z"/>
 </g>
</svg>
