<?xml version="1.0" encoding="UTF-8"?>
<!DOCTYPE svg PUBLIC "-//W3C//DTD SVG 1.1//EN" "http://www.w3.org/Graphics/SVG/1.1/DTD/svg11.dtd">
<!-- Creator: CorelDRAW X7 -->
<svg xmlns="http://www.w3.org/2000/svg" xml:space="preserve" width="17.0375cm" height="13.2447cm" version="1.1" style="shape-rendering:geometricPrecision; text-rendering:geometricPrecision; image-rendering:optimizeQuality; fill-rule:evenodd; clip-rule:evenodd"
viewBox="0 0 1702 1323"
 xmlns:xlink="http://www.w3.org/1999/xlink">
 <defs>
  <style type="text/css">
   <![CDATA[
    .fil2 {fill:#727270}
    .fil5 {fill:#B2B4B3}
    .fil0 {fill:#D9DBDA}
    .fil4 {fill:#E31E24}
    .fil7 {fill:#EA5901}
    .fil3 {fill:#F59E00}
    .fil6 {fill:#FBE3A7}
    .fil1 {fill:white}
   ]]>
  </style>
 </defs>
 <g id="Слой_x0020_1">
  <metadata id="CorelCorpID_0Corel-Layer"/>
  <circle class="fil0" cx="844" cy="661" r="661"/>
  <g id="_1934720820320">
   <path class="fil1" d="M781 675c111,-27 223,-54 334,-80 169,-40 338,-81 507,-121 39,-9 82,13 80,57 -6,109 -12,217 -17,326 -6,110 -12,220 -18,331 -2,40 -40,66 -78,64 -168,-9 -337,-18 -505,-26 -111,-6 -221,-12 -332,-18 -29,-1 -47,-29 -45,-57 5,-70 10,-141 15,-211 5,-70 10,-140 15,-210 2,-25 19,-50 44,-55z"/>
  </g>
  <path class="fil2" d="M788 704c98,-24 209,-50 334,-80 145,-34 311,-74 507,-121 24,-6 44,6 43,27 -6,108 -12,216 -17,325 -6,110 -12,220 -18,331 -1,21 -22,37 -46,36 -196,-10 -362,-19 -505,-26 -125,-7 -235,-12 -332,-17 -11,-1 -18,-12 -17,-26 5,-70 10,-141 15,-211 5,-70 10,-140 15,-210 1,-13 10,-26 21,-28z"/>
  <path class="fil3" d="M830 854c25,-4 50,-7 76,-11 7,-1 12,5 11,13 -1,27 -3,54 -5,81 -1,8 -7,16 -14,16 -26,2 -51,4 -75,6 -7,1 -11,-5 -11,-13 2,-25 4,-51 6,-76 0,-8 6,-15 12,-16z"/>
  <path class="fil1" d="M1561 965c-72,4 -139,8 -203,11 1,-17 2,-34 3,-51 64,-5 131,-10 203,-15 -1,18 -2,37 -3,55z"/>
  <path class="fil1" d="M1301 979c-57,3 -111,6 -163,9 1,-15 2,-31 3,-46 52,-4 106,-8 163,-12 -1,16 -2,33 -3,49z"/>
  <path class="fil1" d="M1092 991c-47,2 -91,5 -134,7 1,-14 2,-28 3,-42 42,-3 87,-7 134,-10 -1,15 -2,30 -3,45z"/>
  <path class="fil1" d="M920 1000c-39,2 -76,4 -112,6 1,-13 2,-26 3,-38 35,-3 73,-6 111,-9 0,14 -1,27 -2,41z"/>
  <path class="fil1" d="M1291 1143c-101,-2 -193,-4 -278,-6 -77,-2 -148,-3 -214,-5 1,-19 3,-39 4,-58 66,-1 137,-2 214,-3 85,-1 177,-2 279,-3 -2,25 -3,50 -5,75z"/>
  <path class="fil1" d="M1355 1158c71,2 148,4 229,7 0,7 -1,13 -1,20 -82,-3 -158,-6 -229,-8 0,-7 0,-13 1,-19z"/>
  <path class="fil4" d="M1318 696c-102,18 -194,35 -279,51 -78,14 -149,27 -216,40 2,-19 3,-38 4,-57 67,-15 138,-30 216,-47 85,-19 178,-39 280,-61 -2,25 -3,49 -5,74z"/>
  <path class="fil1" d="M1579 771c12,-15 19,-33 20,-51 1,-18 -4,-34 -14,-46 -10,6 -20,12 -30,19 -14,9 -28,18 -42,27 4,3 6,7 5,12 0,5 -3,10 -6,14 13,5 26,10 40,15 9,3 18,7 27,10z"/>
  <path class="fil1" d="M1462 1111c1,-6 3,-11 4,-17 1,0 2,1 3,1 6,3 12,4 19,4 1,0 1,0 1,0 7,0 14,-2 14,-7 0,-4 -2,-6 -11,-10 -8,-3 -19,-9 -18,-20 1,-15 17,-25 39,-26 0,0 0,0 0,0 7,0 14,1 20,3 -1,5 -2,11 -4,17 -1,-1 -1,-1 -2,-1 -5,-2 -10,-3 -16,-3 0,0 0,0 -1,0 -8,0 -13,4 -13,7 0,3 5,6 12,9 13,6 19,12 18,21 -1,16 -17,26 -41,26 0,0 0,0 0,0 -8,0 -16,-1 -24,-4 0,0 0,0 0,0zm-87 -70c-11,0 -21,0 -32,1 0,0 0,0 0,1 7,2 14,4 20,7 5,21 9,42 14,63 7,0 15,0 22,0 12,-24 25,-49 37,-74 -7,0 -15,1 -22,1 -8,17 -16,33 -23,50 -1,-3 -1,-7 -2,-10 0,0 0,0 0,0 -2,-11 -3,-22 -5,-33 -1,-4 -4,-6 -8,-6 0,0 -1,0 -1,0 0,0 0,0 0,0zm212 74c0,0 -2,-9 -2,-12 -11,0 -21,0 -31,0 -1,2 -5,12 -5,12 -9,0 -17,-1 -25,-1 13,-23 26,-47 39,-71 1,-4 6,-7 11,-7 1,0 1,0 1,0 7,0 13,0 19,-1 5,27 10,53 16,80 -8,0 -16,0 -23,0zm-5 -28c-2,-10 -4,-20 -6,-30 -5,10 -10,20 -14,30 6,0 13,0 20,0zm-155 27c6,-25 12,-50 17,-75 8,0 15,0 22,0 -6,25 -12,50 -18,75 -7,0 -14,0 -21,0z"/>
  <g id="_1934720826272">
   <path class="fil1" d="M71 199c149,22 299,43 449,64 112,16 225,33 337,49 25,3 46,26 52,49 20,78 41,156 61,234 23,90 47,179 70,269 8,31 -4,69 -40,73 -127,13 -255,25 -382,38 -180,18 -360,36 -540,54 -44,5 -78,-31 -78,-74 0,-128 0,-256 0,-384 0,-105 0,-210 0,-315 0,-38 34,-62 71,-57z"/>
  </g>
  <path class="fil5" d="M66 229c166,24 314,45 449,64 123,18 235,34 338,48 11,2 23,14 27,28 19,74 40,152 61,233 22,86 45,175 70,270 5,18 -2,34 -14,35 -114,12 -241,24 -382,38 -158,16 -337,34 -540,54 -25,3 -45,-17 -45,-44 0,-137 0,-265 0,-384 0,-112 0,-216 0,-315 0,-18 16,-30 36,-27z"/>
  <path class="fil6" d="M171 458c42,3 83,6 123,8 11,1 20,10 21,21 3,35 6,71 9,108 1,11 -7,20 -18,20 -42,-1 -84,-2 -128,-2 -12,-1 -23,-11 -23,-23 -1,-39 -3,-76 -4,-113 -1,-12 9,-20 20,-19z"/>
  <path class="fil1" d="M918 684c-39,0 -79,0 -121,0 -4,-17 -7,-33 -11,-49 42,1 82,2 121,3 4,15 7,31 11,46z"/>
  <path class="fil1" d="M755 684c-44,0 -91,0 -139,0 -3,-18 -6,-35 -9,-52 48,1 94,1 138,2 4,17 7,33 10,50z"/>
  <path class="fil1" d="M568 684c-52,0 -106,0 -163,0 -2,-19 -4,-38 -5,-56 55,1 109,2 160,3 3,17 5,35 8,53z"/>
  <path class="fil1" d="M350 684c-61,0 -125,0 -192,0 0,-20 -1,-40 -2,-61 66,2 128,3 189,4 1,18 3,38 5,57z"/>
  <path class="fil1" d="M790 856c-86,6 -178,12 -277,19 -106,8 -222,16 -347,25 -1,-34 -2,-69 -4,-102 123,-5 235,-9 340,-13 97,-4 187,-7 272,-10 5,27 11,53 16,81z"/>
  <path class="fil6" d="M938 846c-26,1 -55,-28 -63,-65 -9,-36 6,-65 31,-66 25,0 52,28 61,63 9,35 -3,66 -29,68z"/>
  <path class="fil4" d="M879 850c-27,2 -57,-28 -65,-66 -8,-38 8,-68 35,-68 26,0 53,28 62,64 9,36 -5,68 -32,70z"/>
  <path class="fil7" d="M881 729c14,12 25,30 30,51 5,21 2,40 -6,53 -14,-12 -25,-31 -30,-52 -5,-21 -2,-40 6,-52z"/>
  <path class="fil4" d="M841 867c48,-4 94,-7 138,-11 2,7 3,13 5,19 -45,3 -91,7 -139,11 -2,-6 -3,-13 -4,-19z"/>
  <path class="fil4" d="M701 418c-78,-8 -161,-17 -250,-26 -94,-10 -196,-20 -304,-31 -1,-26 -2,-51 -3,-75 106,13 205,26 298,38 87,11 169,21 246,31 5,21 9,42 13,63z"/>
  <path class="fil1" d="M884 529c2,-11 2,-23 -1,-37 -4,-13 -10,-26 -18,-37 -4,3 -8,6 -12,9 -5,5 -11,9 -18,14 3,3 5,7 6,11 1,4 1,7 0,10 8,6 17,12 25,18 6,4 12,8 18,12z"/>
 </g>
</svg>
