<?xml version="1.0" encoding="UTF-8"?>
<!DOCTYPE svg PUBLIC "-//W3C//DTD SVG 1.1//EN" "http://www.w3.org/Graphics/SVG/1.1/DTD/svg11.dtd">
<!-- Creator: CorelDRAW X7 -->
<svg xmlns="http://www.w3.org/2000/svg" xml:space="preserve" width="16.8341cm" height="13.2447cm" version="1.1" style="shape-rendering:geometricPrecision; text-rendering:geometricPrecision; image-rendering:optimizeQuality; fill-rule:evenodd; clip-rule:evenodd"
viewBox="0 0 1661 1307"
 xmlns:xlink="http://www.w3.org/1999/xlink">
 <defs>
  <style type="text/css">
   <![CDATA[
    .fil6 {fill:#727270}
    .fil2 {fill:#B2B4B3}
    .fil0 {fill:#D9DBDA}
    .fil4 {fill:#E31E24}
    .fil5 {fill:#EA5901}
    .fil3 {fill:#FBE3A7}
    .fil1 {fill:white}
    .fil7 {fill:white;fill-rule:nonzero}
   ]]>
  </style>
 </defs>
 <g id="Слой_x0020_1">
  <metadata id="CorelCorpID_0Corel-Layer"/>
  <circle class="fil0" cx="833" cy="654" r="654"/>
  <g id="_1898808458608">
   <path class="fil1" d="M70 197c148,21 296,42 443,63 112,16 223,32 334,48 25,3 45,26 51,49 20,77 40,154 60,231 23,88 46,177 70,266 7,30 -4,68 -40,72 -126,12 -252,25 -378,38 -177,17 -355,35 -533,53 -43,4 -77,-31 -77,-74 0,-126 0,-253 0,-379 0,-104 0,-207 0,-311 0,-37 34,-61 70,-56z"/>
  </g>
  <path class="fil2" d="M66 226c163,24 310,45 443,64 121,17 232,33 334,47 11,2 23,14 27,28 19,73 39,150 60,230 22,84 45,173 69,266 5,18 -2,34 -14,35 -113,12 -238,24 -378,38 -156,16 -332,33 -533,53 -24,3 -44,-17 -44,-44 0,-135 0,-262 0,-379 0,-110 0,-214 0,-311 0,-17 16,-30 36,-27z"/>
  <path class="fil3" d="M169 452c42,3 82,6 122,9 10,1 19,10 20,20 3,35 6,70 9,106 1,12 -7,21 -18,21 -41,-1 -83,-2 -127,-3 -11,0 -21,-10 -22,-22 -1,-38 -3,-76 -4,-112 0,-11 9,-20 20,-19z"/>
  <path class="fil1" d="M907 676c-38,0 -78,0 -120,0 -3,-16 -7,-32 -10,-48 41,1 81,1 119,2 4,15 8,31 11,46z"/>
  <path class="fil1" d="M746 676c-44,0 -90,0 -138,0 -3,-18 -5,-35 -8,-52 47,1 93,2 137,3 3,16 6,32 9,49z"/>
  <path class="fil1" d="M561 675c-51,1 -105,1 -160,1 -2,-19 -4,-38 -6,-56 55,1 108,2 158,3 3,17 6,35 8,52z"/>
  <path class="fil1" d="M346 676c-61,0 -124,0 -190,0 0,-20 -1,-40 -2,-60 65,1 127,2 187,3 1,19 3,38 5,57z"/>
  <path class="fil1" d="M781 846c-85,6 -176,12 -274,19 -105,7 -219,15 -343,24 -1,-34 -2,-67 -4,-100 121,-5 233,-9 336,-13 96,-4 185,-7 269,-10 5,26 10,53 16,80z"/>
  <path class="fil3" d="M927 835c-26,2 -54,-27 -63,-63 -8,-36 6,-65 32,-65 24,-1 51,27 60,61 8,35 -4,66 -29,67z"/>
  <path class="fil4" d="M868 840c-27,1 -56,-28 -64,-66 -8,-37 8,-66 34,-67 26,0 54,28 62,63 9,36 -5,68 -32,70z"/>
  <path class="fil5" d="M870 720c14,12 25,30 30,50 5,21 2,40 -6,53 -13,-12 -25,-30 -30,-51 -4,-21 -2,-40 6,-52z"/>
  <path class="fil4" d="M831 857c47,-4 93,-7 137,-11 1,6 3,12 4,18 -44,4 -90,8 -137,12 -2,-7 -3,-13 -4,-19z"/>
  <path class="fil4" d="M693 413c-77,-8 -159,-17 -247,-26 -94,-9 -194,-20 -301,-31 -1,-25 -2,-49 -3,-74 105,14 203,26 295,38 86,11 167,21 243,31 5,20 9,41 13,62z"/>
  <path class="fil1" d="M873 522c3,-10 3,-22 -1,-36 -3,-13 -9,-25 -17,-36 -4,3 -8,6 -12,9 -6,4 -11,9 -17,13 2,3 4,7 5,11 1,4 1,7 0,10 8,6 17,12 25,18 6,4 11,7 17,11z"/>
  <polygon class="fil6" points="1258,122 1282,146 1285,149 1288,152 1291,155 1294,159 1297,162 1299,166 1302,169 1304,173 1306,177 1308,181 1310,185 1312,189 1314,193 1316,197 1318,201 1319,206 1321,210 1322,215 1323,219 1324,224 1325,228 1326,233 1327,238 1327,243 1328,248 1328,253 1328,258 1329,263 1328,268 1328,273 1328,278 1328,283 1327,288 1326,293 1325,298 1324,303 1323,307 1322,312 1321,317 1320,321 1318,326 1316,330 1315,335 1313,339 1311,343 1309,348 1307,352 1304,356 1302,360 1300,364 1297,368 1294,372 1292,376 1289,379 1286,383 1283,387 1280,390 1277,393 1274,397 1271,400 1268,403 1264,405 1261,408 1258,411 1254,413 1251,416 1247,418 1244,420 1240,423 1237,425 1233,427 1229,429 1226,430 1222,432 1218,434 1214,435 1210,437 1206,438 1202,439 1198,440 1195,441 1191,442 1187,442 1183,443 1179,444 1175,444 1171,444 1167,444 1163,444 1159,444 1155,444 1151,444 1147,443 1143,443 1110,438 1114,439 1118,439 1122,439 1126,440 1131,440 1135,440 1139,439 1143,439 1148,439 1152,438 1156,438 1160,437 1164,436 1169,435 1173,434 1177,433 1181,431 1185,430 1189,428 1193,427 1197,425 1201,423 1205,421 1209,419 1213,416 1217,414 1221,412 1224,409 1228,407 1232,404 1235,401 1239,398 1242,395 1246,392 1249,389 1252,385 1255,382 1259,378 1262,374 1265,371 1268,367 1271,363 1273,358 1276,354 1279,350 1281,346 1284,341 1286,337 1288,332 1290,328 1292,323 1294,318 1296,313 1297,309 1299,304 1300,299 1301,294 1303,289 1304,284 1305,278 1305,273 1306,268 1306,263 1307,257 1307,252 1307,247 1307,241 1307,236 1306,231 1306,225 1305,220 1304,215 1303,210 1302,205 1301,200 1300,195 1299,190 1297,186 1295,181 1294,176 1292,172 1290,168 1288,163 1285,159 1283,155 1281,151 1278,147 1276,143 1273,139 1270,136 1267,132 1264,129 1261,125 "/>
  <path class="fil3" d="M1126 440c-44,-2 -79,-22 -105,-52 -24,-28 -39,-66 -41,-108 -2,-43 10,-84 32,-118 22,-35 56,-64 98,-76 45,-14 91,-7 127,19 39,27 66,74 70,131 3,58 -19,112 -55,149 -34,36 -81,56 -126,55z"/>
  <path class="fil6" d="M1041 312c0,-5 0,-10 -1,-15 3,0 6,0 8,-1 6,0 10,-2 12,-4 1,-1 2,-5 2,-10 -1,-23 -2,-46 -3,-69 -8,2 -15,3 -22,4 0,-5 0,-9 -1,-14 9,-3 15,-6 20,-10 5,-4 8,-10 10,-17 5,-1 10,-2 16,-4 0,18 1,36 2,54 1,18 2,35 2,53 1,6 1,9 3,10 2,2 5,2 12,1 3,0 6,0 10,-1 0,6 0,11 0,16 -24,3 -48,5 -70,7zm93 -80c1,20 4,34 9,42 5,9 12,13 22,12 9,-1 16,-7 21,-17 4,-10 6,-25 5,-46 -1,-20 -5,-35 -10,-43 -5,-9 -12,-12 -22,-10 -10,2 -16,8 -20,19 -4,10 -5,24 -5,43zm-31 6c-1,-22 3,-40 13,-56 10,-16 24,-26 42,-30 19,-4 35,-1 48,11 13,12 21,30 22,54 1,24 -4,44 -16,61 -12,16 -28,25 -47,26 -18,2 -32,-3 -44,-16 -11,-12 -17,-29 -18,-50zm-61 101c27,-2 56,-4 87,-6 33,-2 68,-4 105,-7 0,10 1,20 1,29 -37,2 -72,3 -105,5 -30,1 -59,2 -87,3 0,-8 0,-16 -1,-24z"/>
  <path class="fil7" d="M1033 308c0,-5 0,-10 -1,-15 3,0 6,0 8,-1 6,0 10,-2 12,-3 1,-2 2,-6 2,-11 -1,-23 -2,-46 -3,-69 -8,2 -15,3 -22,4 0,-5 0,-9 -1,-14 9,-3 15,-6 20,-10 5,-4 8,-10 11,-17 4,-1 10,-2 15,-4 0,18 1,36 2,54 1,18 2,35 3,53 0,6 1,9 2,10 2,2 5,2 12,1 3,0 6,0 10,-1 0,6 0,11 1,17 -25,2 -49,4 -71,6zm94 -80c0,20 3,34 8,42 5,9 12,13 22,12 9,-1 16,-7 21,-17 4,-10 6,-25 5,-46 -1,-20 -4,-35 -10,-43 -5,-9 -12,-12 -22,-10 -9,2 -16,9 -20,19 -4,10 -5,24 -4,43zm-32 6c-1,-22 3,-40 13,-56 10,-16 24,-26 42,-30 19,-4 35,-1 48,11 13,12 21,30 22,54 1,24 -4,45 -16,61 -12,16 -28,25 -46,26 -19,2 -33,-3 -45,-16 -11,-12 -17,-29 -18,-50zm-61 101c28,-1 57,-3 87,-6 33,-2 68,-4 105,-7 0,10 1,20 1,29 -37,2 -72,3 -105,5 -30,1 -59,2 -87,3 0,-8 0,-16 -1,-24z"/>
  <polygon class="fil6" points="1434,868 1396,856 1392,855 1388,854 1385,852 1381,851 1377,849 1373,847 1369,846 1366,844 1362,842 1359,839 1355,837 1352,835 1348,833 1345,830 1342,827 1338,825 1335,822 1332,819 1329,816 1326,813 1323,810 1320,806 1317,803 1314,799 1311,795 1309,792 1306,788 1303,784 1301,780 1299,776 1296,772 1294,767 1292,763 1290,759 1288,754 1286,750 1285,745 1283,740 1282,736 1280,731 1279,726 1278,721 1277,716 1276,711 1275,706 1274,701 1274,696 1273,690 1273,685 1273,680 1273,674 1273,669 1273,663 1273,658 1274,652 1274,647 1275,642 1276,636 1277,631 1278,626 1279,621 1280,616 1281,611 1283,606 1285,601 1286,596 1288,591 1290,586 1292,582 1294,577 1297,573 1299,568 1302,564 1304,560 1307,555 1310,551 1312,547 1315,543 1318,539 1322,536 1325,532 1328,528 1332,525 1335,522 1338,518 1342,515 1345,512 1349,509 1353,506 1357,504 1360,501 1364,499 1368,496 1372,494 1376,492 1380,490 1385,488 1389,486 1393,485 1397,483 1435,471 1431,473 1426,474 1422,476 1417,478 1413,480 1409,483 1405,485 1400,487 1396,490 1392,493 1388,496 1384,499 1380,502 1377,505 1373,508 1369,512 1365,515 1362,519 1358,523 1355,527 1352,531 1348,535 1345,539 1342,543 1339,548 1336,552 1334,557 1331,561 1328,566 1326,571 1324,576 1322,581 1319,586 1317,591 1316,596 1314,601 1312,606 1311,612 1309,617 1308,623 1307,628 1306,634 1305,639 1304,645 1304,651 1303,657 1303,662 1303,668 1303,674 1303,680 1303,686 1303,691 1304,697 1305,702 1305,708 1306,713 1307,719 1308,724 1310,729 1311,734 1312,739 1314,744 1316,749 1317,754 1319,759 1321,764 1323,769 1326,773 1328,778 1330,782 1333,786 1336,791 1338,795 1341,799 1344,803 1347,807 1350,811 1353,814 1356,818 1359,822 1363,825 1366,828 1369,831 1373,834 1376,837 1380,840 1383,843 1387,845 1391,848 1394,850 1398,852 1402,854 1406,856 1410,858 1414,860 1418,862 1422,864 1426,865 1430,866 "/>
  <path class="fil3" d="M1491 874c-47,3 -94,-15 -128,-49 -36,-36 -60,-89 -60,-151 -1,-63 24,-120 62,-159 39,-38 89,-58 142,-51 50,7 91,37 118,78 26,39 40,88 36,140 -4,51 -25,97 -54,131 -30,34 -70,57 -116,61z"/>
  <path class="fil6" d="M1378 728c0,-7 0,-13 0,-20 4,0 8,0 11,0 9,0 15,-1 17,-3 2,-2 3,-6 3,-13 1,-29 2,-59 2,-90 -10,0 -21,-1 -31,-2 0,-6 0,-13 0,-20 13,0 22,-2 29,-5 7,-4 13,-10 16,-19 7,1 14,1 21,2 -1,23 -2,46 -2,69 -1,22 -2,44 -2,66 0,7 0,11 2,13 2,2 6,3 14,3 4,0 8,0 12,0 0,6 0,13 -1,19 -29,0 -60,0 -91,0zm124 -80c-1,22 1,39 5,49 4,10 11,15 20,15 10,0 17,-4 22,-14 5,-10 8,-26 9,-48 1,-22 0,-38 -4,-49 -4,-10 -11,-16 -20,-17 -10,-1 -18,4 -23,14 -5,11 -8,28 -9,50zm-36 -2c1,-26 8,-47 21,-63 13,-15 29,-22 48,-20 18,1 33,11 43,27 10,17 15,37 13,62 -2,24 -8,43 -20,58 -12,15 -27,22 -45,22 -18,0 -33,-7 -44,-23 -12,-16 -17,-37 -16,-63zm-89 117c38,-1 74,-2 109,-2 34,-1 67,-1 98,-2 0,9 -1,18 -2,27 -31,1 -63,3 -97,4 -35,1 -71,2 -108,3 0,-10 0,-20 0,-30z"/>
  <path class="fil7" d="M1387 723c0,-7 0,-13 0,-20 4,0 8,0 11,0 9,0 14,-1 17,-3 2,-2 3,-6 3,-13 1,-29 2,-59 2,-89 -10,-1 -21,-2 -31,-2 0,-7 0,-14 0,-21 12,0 22,-2 29,-5 7,-4 12,-10 16,-19 7,1 14,1 21,2 -1,23 -2,46 -2,69 -1,22 -2,44 -2,66 0,7 0,11 2,13 2,2 6,3 14,3 4,0 8,0 12,0 0,6 -1,13 -1,19 -29,0 -60,0 -91,0zm124 -80c-1,22 0,39 5,49 4,10 10,15 20,15 10,0 17,-4 22,-14 5,-10 8,-26 9,-48 1,-21 0,-38 -4,-49 -4,-10 -11,-16 -21,-17 -9,-1 -17,4 -22,15 -5,10 -8,27 -9,49zm-36 -1c0,-27 8,-48 21,-63 12,-16 29,-23 47,-21 19,1 34,11 44,27 10,17 14,37 13,62 -2,24 -8,43 -20,58 -12,15 -27,22 -45,22 -18,0 -33,-7 -44,-23 -12,-16 -17,-37 -16,-62zm-89 116c38,-1 74,-1 109,-2 34,-1 67,-1 98,-2 -1,9 -1,18 -2,27 -31,2 -63,3 -97,4 -35,1 -71,2 -108,3 0,-10 0,-20 0,-30z"/>
  <polygon class="fil6" points="1297,947 1320,975 1322,979 1325,982 1327,985 1329,989 1331,992 1333,996 1335,999 1337,1003 1339,1007 1341,1011 1342,1015 1344,1019 1345,1023 1347,1027 1348,1031 1349,1036 1350,1040 1351,1044 1352,1049 1352,1053 1353,1058 1353,1063 1354,1067 1354,1072 1354,1077 1354,1082 1354,1087 1353,1092 1353,1097 1353,1102 1352,1107 1351,1112 1350,1117 1349,1122 1348,1127 1347,1132 1345,1137 1344,1142 1342,1147 1340,1151 1339,1156 1337,1161 1335,1166 1333,1170 1330,1175 1328,1179 1326,1184 1323,1188 1321,1192 1318,1196 1315,1201 1312,1205 1309,1209 1306,1213 1303,1217 1300,1220 1297,1224 1293,1228 1290,1231 1286,1235 1283,1238 1279,1241 1276,1245 1272,1248 1268,1251 1265,1253 1261,1256 1257,1259 1253,1262 1249,1264 1245,1266 1241,1269 1237,1271 1233,1273 1229,1275 1224,1277 1220,1278 1216,1280 1212,1282 1207,1283 1203,1284 1199,1285 1194,1286 1190,1287 1186,1288 1181,1289 1177,1289 1173,1290 1168,1290 1164,1290 1160,1290 1155,1290 1151,1290 1147,1290 1143,1289 1138,1289 1134,1288 1130,1287 1126,1286 1091,1278 1096,1279 1100,1280 1104,1280 1109,1281 1113,1282 1118,1282 1122,1282 1127,1282 1131,1282 1136,1282 1141,1282 1145,1281 1150,1281 1155,1280 1159,1279 1164,1278 1168,1277 1173,1276 1178,1274 1182,1273 1187,1271 1191,1270 1196,1268 1200,1266 1205,1264 1209,1261 1213,1259 1218,1257 1222,1254 1226,1252 1230,1249 1234,1246 1238,1243 1242,1240 1246,1237 1250,1234 1254,1230 1258,1227 1262,1223 1265,1219 1269,1216 1273,1212 1276,1208 1279,1204 1283,1200 1286,1195 1289,1191 1292,1187 1295,1182 1298,1178 1301,1173 1303,1169 1306,1164 1308,1159 1311,1154 1313,1149 1315,1145 1317,1140 1319,1135 1321,1129 1323,1124 1324,1119 1326,1114 1327,1109 1328,1103 1329,1098 1330,1093 1331,1087 1332,1082 1333,1076 1333,1071 1333,1066 1333,1060 1333,1055 1333,1050 1333,1045 1333,1040 1332,1035 1332,1030 1331,1025 1330,1021 1329,1016 1328,1011 1327,1007 1326,1002 1324,998 1323,993 1321,989 1320,985 1318,981 1316,977 1314,973 1312,969 1309,965 1307,961 1305,958 1302,954 1300,951 "/>
  <path class="fil3" d="M1118 1282c-49,-3 -86,-28 -110,-64 -23,-35 -32,-81 -24,-130 8,-48 31,-93 63,-127 32,-34 75,-58 120,-64 48,-6 91,10 121,41 32,32 50,81 45,138 -6,59 -34,113 -75,151 -40,37 -91,58 -140,55z"/>
  <path class="fil6" d="M1048 1132c1,-6 2,-11 2,-17 3,0 6,0 10,0 7,-1 11,-1 13,-3 2,-2 4,-6 5,-12 4,-26 7,-51 11,-76 -9,0 -17,1 -25,2 0,-6 1,-11 2,-17 10,-1 18,-3 24,-7 6,-4 11,-10 15,-17 5,-1 11,-1 17,-2 -3,19 -5,39 -8,58 -3,19 -5,39 -8,59 -1,6 -1,10 1,11 1,2 5,2 12,2 4,0 8,0 11,0 0,6 -1,12 -2,18 -27,0 -54,1 -80,1zm118 -78c-2,21 -2,37 1,46 4,10 11,15 21,15 10,-1 18,-6 24,-16 6,-10 11,-26 13,-48 3,-21 2,-36 -2,-46 -3,-9 -10,-13 -20,-13 -10,1 -18,7 -24,17 -6,10 -10,25 -13,45zm-34 2c3,-23 11,-42 25,-57 13,-15 29,-24 48,-26 19,-1 34,5 45,19 11,14 16,33 13,58 -3,24 -12,45 -26,61 -15,16 -32,24 -52,24 -19,0 -34,-7 -43,-22 -10,-15 -13,-34 -10,-57zm-89 107c32,0 65,0 99,0 35,1 71,1 108,1 -1,10 -2,20 -3,31 -38,-1 -74,-2 -109,-2 -34,-1 -67,-1 -99,-2 2,-9 3,-19 4,-28z"/>
  <path class="fil7" d="M1040 1126c1,-5 2,-11 2,-17 4,0 7,0 10,0 7,0 11,-1 13,-3 3,-2 4,-6 5,-12 4,-26 7,-51 11,-76 -9,1 -17,1 -25,2 0,-6 1,-11 2,-17 10,-1 18,-3 24,-7 6,-4 11,-10 15,-17 5,-1 11,-1 17,-2 -3,19 -5,39 -8,58 -3,19 -5,39 -8,59 -1,6 -1,10 1,11 1,2 5,3 12,2 4,0 8,0 11,0 0,6 -1,12 -2,18 -27,1 -54,1 -80,1zm118 -78c-2,21 -2,37 2,46 3,10 10,15 20,15 10,-1 18,-6 24,-16 6,-10 11,-26 13,-48 3,-21 2,-36 -2,-45 -3,-10 -10,-14 -20,-13 -10,0 -18,6 -24,16 -6,10 -10,25 -13,45zm-34 2c3,-23 11,-42 25,-57 13,-15 29,-24 48,-25 19,-2 34,4 45,18 11,14 16,33 13,58 -3,24 -11,45 -26,61 -15,16 -32,24 -52,24 -19,0 -33,-7 -43,-22 -10,-15 -13,-34 -10,-57zm-89 107c32,0 65,0 99,1 35,0 71,0 108,0 -1,10 -2,20 -3,31 -38,-1 -74,-2 -109,-2 -34,-1 -67,-1 -99,-2 2,-9 3,-18 4,-28z"/>
 </g>
</svg>
